# xmcd
#
# Track frame offsets:
#	150
#	9980
#	30010
#	46980
#	55232
#	67230
#	78205
#	88950
#	99002
#	115682
#	126300
#	133027
#	145145
#	159985
#	178357
#	196445
#	216597
#	232527
#
# Disc length: 3385
#
# Revision: 2
# Processed by: cddbd v1.5.1PL0 Copyright (c) Steve Scherf et al.
# Submitted via: EasyCDDAExtractor 7.0.6.1
# Normalized: r1:DSETVAR1
#
DISCID=ee0d3712
DTITLE=Various Artist - Country Rockers
DYEAR=1900
DGENRE=Country
TTITLE0=Jerry Lee Lewis - Motor Runnin'
TTITLE1=Jerry Lee Lewis - Somewhere Over The Rainbow
TTITLE2=Jerry Lee Lewis - You Turn Me On-Good Golly Miss Molly-Tutti Frutti
TTITLE3=Jerry Lee Lewis - Great Balls Of Fire
TTITLE4=Jerry Lee Lewis - Rockin' My Life Away
TTITLE5=Jerry Lee Lewis - Whole Lotta Shakin' Goin' On
TTITLE6=Jerry Lee Lewis - Mr Tambourine Man
TTITLE7=Jerry Lee Lewis - Mr Spaceman
TTITLE8=Roger McGuire - Turn Turn Turn
TTITLE9=Roger McGuire - Tiffany Queen
TTITLE10=Roger McGuire - So You Want To Be A Rock N Roll Star
TTITLE11=Roger McGuire - High Horse
TTITLE12=Roger McGuire - Home Again My Heart
TTITLE13=Nitty Gritty Dirt Band - Long Hard Ride
TTITLE14=Nitty Gritty Dirt Band - Partners Brothers Friends
TTITLE15=Nitty Gritty Dirt Band - Cadillac Ranch
TTITLE16=Nitty Gritty Dirt Band - Dance Little Jean
TTITLE17=Nitty Gritty Dirt Band - Mr Bojangles
EXTD=
EXTT0=
EXTT1=
EXTT2=
EXTT3=
EXTT4=
EXTT5=
EXTT6=
EXTT7=
EXTT8=
EXTT9=
EXTT10=
EXTT11=
EXTT12=
EXTT13=
EXTT14=
EXTT15=
EXTT16=
EXTT17=
PLAYORDER=
